# xmcd
#
# Track frame offsets: 
#        150
#        12469
#        33922
#        57601
#        80568
#        99300
#        113878
#        134590
#        155253
#        167707
#
# Disc length: 2348 seconds
#
# Revision: 0
# Processed by: cddbd v1.5.2PL0 Copyright (c) Steve Scherf et al.
# Submitted via: ExactAudioCopyFreeDBPlugin 1.0
#
DISCID=7f092a0a
DTITLE=Space Lady, The - The Space Lady's Greatest Hits
DYEAR=1900
DGENRE=
TTITLE0=Humdinger
TTITLE1=Synthesize Me
TTITLE2=Major Tom
TTITLE3=Ghost Riders In The Sky
TTITLE4=Domine, Libra Nos - Showdown
TTITLE5=Fly Like An Eagle
TTITLE6=Born To Be Wild
TTITLE7=I Had Too Much To Dream (Last Night)
TTITLE8=From the Womb To The Tomb
TTITLE9=Ballroom Blitz
EXTD=
EXTT0=
EXTT1=
EXTT2=
EXTT3=
EXTT4=
EXTT5=
EXTT6=
EXTT7=
EXTT8=
EXTT9=
PLAYORDER=
